<?xml version="1.0" encoding="UTF-8"?><svg version="1.1" viewBox="0 0 24 24" xmlns="http://www.w3.org/2000/svg" xmlns:xlink="http://www.w3.org/1999/xlink"><!--Generated by IJSVG (https://github.com/iconjar/IJSVG)--><g fill="#90A4AE" fill-rule="evenodd"><path d="M5.5,15.25c-1.24264,0 -2.25,1.0074 -2.25,2.25c0,1.2426 1.00736,2.25 2.25,2.25c1.24264,0 2.25,-1.0074 2.25,-2.25c0,-1.2426 -1.00736,-2.25 -2.25,-2.25Z"></path><path d="M12.5,15.25c-1.2426,0 -2.25,1.0074 -2.25,2.25c0,1.2426 1.0074,2.25 2.25,2.25c1.2426,0 2.25,-1.0074 2.25,-2.25c0,-1.2426 -1.0074,-2.25 -2.25,-2.25Z"></path><path d="M19.5,15.25c-1.2426,0 -2.25,1.0074 -2.25,2.25c0,1.2426 1.0074,2.25 2.25,2.25c1.2426,0 2.25,-1.0074 2.25,-2.25c0,-1.2426 -1.0074,-2.25 -2.25,-2.25Z"></path><path fill="#ECEFF1" d="M8,6.25c-4.28021,0 -7.75,3.46979 -7.75,7.75v1c0,0.9665 0.7835,1.75 1.75,1.75h21c0.4142,0 0.75,-0.3358 0.75,-0.75v-6c0,-2.07107 -1.6789,-3.75 -3.75,-3.75h-12Z"></path><path fill="#64B5F6" d="M1.62883,13.4831l-0.12883,-0.4831h-0.5c0,-3.58985 2.91015,-6.5 6.5,-6.5h1.5h0.5v0.5v4v0.3841l-0.37117,0.099l-7.5,2Z"></path><path fill="#64B5F6" d="M9,6.5h-0.5v0.5v4v0.5h0.5h13.5h0.5v-0.5v-1.5c0,-1.65685 -1.3431,-3 -3,-3h-11Z"></path><path fill="#607D8B" d="M0.328453,12.8938c0.537319,-3.75645 3.7666,-6.6438 7.67156,-6.6438h12c2.0711,0 3.75,1.67893 3.75,3.75v1c0,0.4142 -0.3358,0.75 -0.75,0.75c-0.4142,0 -0.75,-0.3358 -0.75,-0.75v-1c0,-1.24264 -1.0074,-2.25 -2.25,-2.25h-12c-3.14799,0 -5.75353,2.3281 -6.18667,5.3562c-0.05865,0.41 -0.4386,0.6949 -0.848642,0.6362c-0.41004,-0.0586 -0.694896,-0.4386 -0.636245,-0.8486Z"></path><path fill="#607D8B" d="M0.25,19c0,-0.4142 0.335786,-0.75 0.75,-0.75h22c0.4142,0 0.75,0.3358 0.75,0.75c0,0.4142 -0.3358,0.75 -0.75,0.75h-22c-0.414214,0 -0.75,-0.3358 -0.75,-0.75Z"></path><path fill="#607D8B" d="M8.25,11c0,-0.4142 0.33579,-0.75 0.75,-0.75h14c0.4142,0 0.75,0.3358 0.75,0.75c0,0.4142 -0.3358,0.75 -0.75,0.75h-14c-0.41421,0 -0.75,-0.3358 -0.75,-0.75Z"></path><path fill="#607D8B" d="M9,6.25c0.41421,0 0.75,0.33579 0.75,0.75v4c0,0.4142 -0.33579,0.75 -0.75,0.75c-0.41421,0 -0.75,-0.3358 -0.75,-0.75v-4c0,-0.41421 0.33579,-0.75 0.75,-0.75Z"></path><path fill="#607D8B" d="M16,6.25c0.4142,0 0.75,0.33579 0.75,0.75v4c0,0.4142 -0.3358,0.75 -0.75,0.75c-0.4142,0 -0.75,-0.3358 -0.75,-0.75v-4c0,-0.41421 0.3358,-0.75 0.75,-0.75Z"></path><path fill="#607D8B" d="M9.72462,10.8069c0.10673,0.4003 -0.1312,0.8112 -0.53143,0.918l-7.5,2c-0.40023,0.1067 -0.811197,-0.1312 -0.917925,-0.5315c-0.106727,-0.4002 0.131202,-0.8112 0.531425,-0.9179l7.5,-2c0.40023,-0.1067 0.8112,0.1312 0.91793,0.5314Z"></path><path d="M6.25,4c0,-0.41421 0.33579,-0.75 0.75,-0.75h14c0.4142,0 0.75,0.33579 0.75,0.75c0,0.41421 -0.3358,0.75 -0.75,0.75h-14c-0.41421,0 -0.75,-0.33579 -0.75,-0.75Z"></path></g></svg>